<svg width="430" height="557" viewBox="0 0 430 557" fill="none" xmlns="http://www.w3.org/2000/svg">
<g filter="url(#filter0_d_201_468)">
<path d="M35.1717 55.2992C35.0793 46.5248 42.5054 39.545 51.2573 40.1806L395.086 65.1494C402.929 65.7189 409 72.2472 409 80.11V534C409 542.284 402.284 549 394 549H55.2155C46.9929 549 40.303 542.38 40.2163 534.158L35.1717 55.2992Z" fill="white" fill-opacity="0.04" shape-rendering="crispEdges"/>
<path d="M36.1717 55.2887C36.0854 47.0992 43.0165 40.5848 51.1849 41.178L395.014 66.1467C402.333 66.6783 408 72.7714 408 80.11V534C408 541.732 401.732 548 394 548H55.2155C47.5411 548 41.2971 541.822 41.2163 534.147L36.1717 55.2887Z" stroke="white" stroke-width="2" shape-rendering="crispEdges"/>
</g>
<g filter="url(#filter1_d_201_468)">
<ellipse cx="78.432" cy="75.4922" rx="4.43203" ry="5.49219" fill="white"/>
<path d="M78.432 85.9844C84.5893 85.9844 87.8641 80.2321 87.8641 75.4922C87.8641 70.7523 84.5893 65 78.432 65C72.2747 65 69 70.7523 69 75.4922C69 80.2321 72.2747 85.9844 78.432 85.9844Z" stroke="#08A0F5" stroke-width="10"/>
</g>
<path d="M77.9299 179.146L77.9298 528.464" stroke="white" stroke-dasharray="2 2"/>
<ellipse cx="77.93" cy="264.39" rx="5.92996" ry="5.63415" fill="white"/>
<ellipse cx="77.93" cy="413.903" rx="5.92996" ry="5.63415" fill="white"/>
<path d="M77.9299 89L77.9299 179.146" stroke="#2F7FEC"/>
<path d="M142.134 161.992C143.014 162.271 143.703 162.74 144.202 163.4C144.701 164.045 144.95 164.845 144.95 165.798C144.95 167.147 144.422 168.189 143.366 168.922C142.325 169.641 140.799 170 138.79 170H130.826V154.6H138.35C140.227 154.6 141.665 154.959 142.662 155.678C143.674 156.397 144.18 157.372 144.18 158.604C144.18 159.352 143.997 160.019 143.63 160.606C143.278 161.193 142.779 161.655 142.134 161.992ZM134.368 157.284V160.914H137.91C138.79 160.914 139.457 160.76 139.912 160.452C140.367 160.144 140.594 159.689 140.594 159.088C140.594 158.487 140.367 158.039 139.912 157.746C139.457 157.438 138.79 157.284 137.91 157.284H134.368ZM138.526 167.316C139.465 167.316 140.169 167.162 140.638 166.854C141.122 166.546 141.364 166.069 141.364 165.424C141.364 164.148 140.418 163.51 138.526 163.51H134.368V167.316H138.526ZM147.406 153.676H150.838V170H147.406V153.676ZM159.655 170.176C158.409 170.176 157.287 169.919 156.289 169.406C155.307 168.878 154.537 168.152 153.979 167.228C153.422 166.304 153.143 165.255 153.143 164.082C153.143 162.909 153.422 161.86 153.979 160.936C154.537 160.012 155.307 159.293 156.289 158.78C157.287 158.252 158.409 157.988 159.655 157.988C160.902 157.988 162.017 158.252 162.999 158.78C163.982 159.293 164.752 160.012 165.309 160.936C165.867 161.86 166.145 162.909 166.145 164.082C166.145 165.255 165.867 166.304 165.309 167.228C164.752 168.152 163.982 168.878 162.999 169.406C162.017 169.919 160.902 170.176 159.655 170.176ZM159.655 167.36C160.535 167.36 161.254 167.067 161.811 166.48C162.383 165.879 162.669 165.079 162.669 164.082C162.669 163.085 162.383 162.293 161.811 161.706C161.254 161.105 160.535 160.804 159.655 160.804C158.775 160.804 158.049 161.105 157.477 161.706C156.905 162.293 156.619 163.085 156.619 164.082C156.619 165.079 156.905 165.879 157.477 166.48C158.049 167.067 158.775 167.36 159.655 167.36ZM174.159 170.176C172.898 170.176 171.761 169.919 170.749 169.406C169.752 168.878 168.967 168.152 168.395 167.228C167.838 166.304 167.559 165.255 167.559 164.082C167.559 162.909 167.838 161.86 168.395 160.936C168.967 160.012 169.752 159.293 170.749 158.78C171.761 158.252 172.898 157.988 174.159 157.988C175.406 157.988 176.491 158.252 177.415 158.78C178.354 159.293 179.036 160.034 179.461 161.002L176.799 162.432C176.183 161.347 175.296 160.804 174.137 160.804C173.243 160.804 172.502 161.097 171.915 161.684C171.329 162.271 171.035 163.07 171.035 164.082C171.035 165.094 171.329 165.893 171.915 166.48C172.502 167.067 173.243 167.36 174.137 167.36C175.311 167.36 176.198 166.817 176.799 165.732L179.461 167.184C179.036 168.123 178.354 168.856 177.415 169.384C176.491 169.912 175.406 170.176 174.159 170.176ZM186.434 165.358L184.784 166.986V170H181.352V153.676H184.784V162.916L189.8 158.164H193.892L188.964 163.18L194.332 170H190.174L186.434 165.358ZM201.079 170.176C199.818 170.176 198.681 169.919 197.669 169.406C196.672 168.878 195.887 168.152 195.315 167.228C194.758 166.304 194.479 165.255 194.479 164.082C194.479 162.909 194.758 161.86 195.315 160.936C195.887 160.012 196.672 159.293 197.669 158.78C198.681 158.252 199.818 157.988 201.079 157.988C202.326 157.988 203.411 158.252 204.335 158.78C205.274 159.293 205.956 160.034 206.381 161.002L203.719 162.432C203.103 161.347 202.216 160.804 201.057 160.804C200.163 160.804 199.422 161.097 198.835 161.684C198.249 162.271 197.955 163.07 197.955 164.082C197.955 165.094 198.249 165.893 198.835 166.48C199.422 167.067 200.163 167.36 201.057 167.36C202.231 167.36 203.118 166.817 203.719 165.732L206.381 167.184C205.956 168.123 205.274 168.856 204.335 169.384C203.411 169.912 202.326 170.176 201.079 170.176ZM215.466 157.988C216.932 157.988 218.113 158.428 219.008 159.308C219.917 160.188 220.372 161.493 220.372 163.224V170H216.94V163.752C216.94 162.813 216.734 162.117 216.324 161.662C215.913 161.193 215.319 160.958 214.542 160.958C213.676 160.958 212.987 161.229 212.474 161.772C211.96 162.3 211.704 163.092 211.704 164.148V170H208.272V153.676H211.704V159.396C212.158 158.941 212.708 158.597 213.354 158.362C213.999 158.113 214.703 157.988 215.466 157.988ZM228.256 157.988C230.09 157.988 231.498 158.428 232.48 159.308C233.463 160.173 233.954 161.486 233.954 163.246V170H230.742V168.526C230.097 169.626 228.894 170.176 227.134 170.176C226.225 170.176 225.433 170.022 224.758 169.714C224.098 169.406 223.592 168.981 223.24 168.438C222.888 167.895 222.712 167.279 222.712 166.59C222.712 165.49 223.123 164.625 223.944 163.994C224.78 163.363 226.064 163.048 227.794 163.048H230.522C230.522 162.3 230.295 161.728 229.84 161.332C229.386 160.921 228.704 160.716 227.794 160.716C227.164 160.716 226.54 160.819 225.924 161.024C225.323 161.215 224.81 161.479 224.384 161.816L223.152 159.418C223.798 158.963 224.568 158.611 225.462 158.362C226.372 158.113 227.303 157.988 228.256 157.988ZM227.992 167.866C228.579 167.866 229.1 167.734 229.554 167.47C230.009 167.191 230.332 166.788 230.522 166.26V165.05H228.168C226.76 165.05 226.056 165.512 226.056 166.436C226.056 166.876 226.225 167.228 226.562 167.492C226.914 167.741 227.391 167.866 227.992 167.866ZM237.061 158.164H240.493V170H237.061V158.164ZM238.777 156.514C238.146 156.514 237.633 156.331 237.237 155.964C236.841 155.597 236.643 155.143 236.643 154.6C236.643 154.057 236.841 153.603 237.237 153.236C237.633 152.869 238.146 152.686 238.777 152.686C239.407 152.686 239.921 152.862 240.317 153.214C240.713 153.566 240.911 154.006 240.911 154.534C240.911 155.106 240.713 155.583 240.317 155.964C239.921 156.331 239.407 156.514 238.777 156.514ZM250.872 157.988C252.338 157.988 253.519 158.428 254.414 159.308C255.323 160.188 255.778 161.493 255.778 163.224V170H252.346V163.752C252.346 162.813 252.14 162.117 251.73 161.662C251.319 161.193 250.725 160.958 249.948 160.958C249.082 160.958 248.393 161.229 247.88 161.772C247.366 162.3 247.11 163.092 247.11 164.148V170H243.678V158.164H246.956V159.55C247.41 159.051 247.975 158.67 248.65 158.406C249.324 158.127 250.065 157.988 250.872 157.988ZM270.839 170.176C269.578 170.176 268.441 169.919 267.429 169.406C266.432 168.878 265.647 168.152 265.075 167.228C264.518 166.304 264.239 165.255 264.239 164.082C264.239 162.909 264.518 161.86 265.075 160.936C265.647 160.012 266.432 159.293 267.429 158.78C268.441 158.252 269.578 157.988 270.839 157.988C272.086 157.988 273.171 158.252 274.095 158.78C275.034 159.293 275.716 160.034 276.141 161.002L273.479 162.432C272.863 161.347 271.976 160.804 270.817 160.804C269.922 160.804 269.182 161.097 268.595 161.684C268.008 162.271 267.715 163.07 267.715 164.082C267.715 165.094 268.008 165.893 268.595 166.48C269.182 167.067 269.922 167.36 270.817 167.36C271.99 167.36 272.878 166.817 273.479 165.732L276.141 167.184C275.716 168.123 275.034 168.856 274.095 169.384C273.171 169.912 272.086 170.176 270.839 170.176ZM283.599 170.176C282.352 170.176 281.23 169.919 280.233 169.406C279.25 168.878 278.48 168.152 277.923 167.228C277.365 166.304 277.087 165.255 277.087 164.082C277.087 162.909 277.365 161.86 277.923 160.936C278.48 160.012 279.25 159.293 280.233 158.78C281.23 158.252 282.352 157.988 283.599 157.988C284.845 157.988 285.96 158.252 286.943 158.78C287.925 159.293 288.695 160.012 289.253 160.936C289.81 161.86 290.089 162.909 290.089 164.082C290.089 165.255 289.81 166.304 289.253 167.228C288.695 168.152 287.925 168.878 286.943 169.406C285.96 169.919 284.845 170.176 283.599 170.176ZM283.599 167.36C284.479 167.36 285.197 167.067 285.755 166.48C286.327 165.879 286.613 165.079 286.613 164.082C286.613 163.085 286.327 162.293 285.755 161.706C285.197 161.105 284.479 160.804 283.599 160.804C282.719 160.804 281.993 161.105 281.421 161.706C280.849 162.293 280.563 163.085 280.563 164.082C280.563 165.079 280.849 165.879 281.421 166.48C281.993 167.067 282.719 167.36 283.599 167.36ZM307.541 157.988C309.022 157.988 310.195 158.428 311.061 159.308C311.941 160.173 312.381 161.479 312.381 163.224V170H308.949V163.752C308.949 162.813 308.751 162.117 308.355 161.662C307.973 161.193 307.423 160.958 306.705 160.958C305.898 160.958 305.26 161.222 304.791 161.75C304.321 162.263 304.087 163.033 304.087 164.06V170H300.655V163.752C300.655 161.889 299.907 160.958 298.411 160.958C297.619 160.958 296.988 161.222 296.519 161.75C296.049 162.263 295.815 163.033 295.815 164.06V170H292.383V158.164H295.661V159.528C296.101 159.029 296.636 158.648 297.267 158.384C297.912 158.12 298.616 157.988 299.379 157.988C300.215 157.988 300.97 158.157 301.645 158.494C302.319 158.817 302.862 159.293 303.273 159.924C303.757 159.308 304.365 158.831 305.099 158.494C305.847 158.157 306.661 157.988 307.541 157.988ZM322.453 157.988C323.553 157.988 324.55 158.245 325.445 158.758C326.354 159.257 327.066 159.968 327.579 160.892C328.092 161.801 328.349 162.865 328.349 164.082C328.349 165.299 328.092 166.37 327.579 167.294C327.066 168.203 326.354 168.915 325.445 169.428C324.55 169.927 323.553 170.176 322.453 170.176C320.942 170.176 319.754 169.699 318.889 168.746V174.268H315.457V158.164H318.735V159.528C319.586 158.501 320.825 157.988 322.453 157.988ZM321.859 167.36C322.739 167.36 323.458 167.067 324.015 166.48C324.587 165.879 324.873 165.079 324.873 164.082C324.873 163.085 324.587 162.293 324.015 161.706C323.458 161.105 322.739 160.804 321.859 160.804C320.979 160.804 320.253 161.105 319.681 161.706C319.124 162.293 318.845 163.085 318.845 164.082C318.845 165.079 319.124 165.879 319.681 166.48C320.253 167.067 320.979 167.36 321.859 167.36ZM335.227 157.988C337.06 157.988 338.468 158.428 339.451 159.308C340.434 160.173 340.925 161.486 340.925 163.246V170H337.713V168.526C337.068 169.626 335.865 170.176 334.105 170.176C333.196 170.176 332.404 170.022 331.729 169.714C331.069 169.406 330.563 168.981 330.211 168.438C329.859 167.895 329.683 167.279 329.683 166.59C329.683 165.49 330.094 164.625 330.915 163.994C331.751 163.363 333.034 163.048 334.765 163.048H337.493C337.493 162.3 337.266 161.728 336.811 161.332C336.356 160.921 335.674 160.716 334.765 160.716C334.134 160.716 333.511 160.819 332.895 161.024C332.294 161.215 331.78 161.479 331.355 161.816L330.123 159.418C330.768 158.963 331.538 158.611 332.433 158.362C333.342 158.113 334.274 157.988 335.227 157.988ZM334.963 167.866C335.55 167.866 336.07 167.734 336.525 167.47C336.98 167.191 337.302 166.788 337.493 166.26V165.05H335.139C333.731 165.05 333.027 165.512 333.027 166.436C333.027 166.876 333.196 167.228 333.533 167.492C333.885 167.741 334.362 167.866 334.963 167.866ZM351.225 157.988C352.692 157.988 353.873 158.428 354.767 159.308C355.677 160.188 356.131 161.493 356.131 163.224V170H352.699V163.752C352.699 162.813 352.494 162.117 352.083 161.662C351.673 161.193 351.079 160.958 350.301 160.958C349.436 160.958 348.747 161.229 348.233 161.772C347.72 162.3 347.463 163.092 347.463 164.148V170H344.031V158.164H347.309V159.55C347.764 159.051 348.329 158.67 349.003 158.406C349.678 158.127 350.419 157.988 351.225 157.988ZM359.242 158.164H362.674V170H359.242V158.164ZM360.958 156.514C360.328 156.514 359.814 156.331 359.418 155.964C359.022 155.597 358.824 155.143 358.824 154.6C358.824 154.057 359.022 153.603 359.418 153.236C359.814 152.869 360.328 152.686 360.958 152.686C361.589 152.686 362.102 152.862 362.498 153.214C362.894 153.566 363.092 154.006 363.092 154.534C363.092 155.106 362.894 155.583 362.498 155.964C362.102 156.331 361.589 156.514 360.958 156.514ZM377.453 164.126C377.453 164.17 377.431 164.478 377.387 165.05H368.433C368.595 165.783 368.976 166.363 369.577 166.788C370.179 167.213 370.927 167.426 371.821 167.426C372.437 167.426 372.98 167.338 373.449 167.162C373.933 166.971 374.381 166.678 374.791 166.282L376.617 168.262C375.503 169.538 373.875 170.176 371.733 170.176C370.399 170.176 369.218 169.919 368.191 169.406C367.165 168.878 366.373 168.152 365.815 167.228C365.258 166.304 364.979 165.255 364.979 164.082C364.979 162.923 365.251 161.882 365.793 160.958C366.351 160.019 367.106 159.293 368.059 158.78C369.027 158.252 370.105 157.988 371.293 157.988C372.452 157.988 373.501 158.237 374.439 158.736C375.378 159.235 376.111 159.953 376.639 160.892C377.182 161.816 377.453 162.894 377.453 164.126ZM371.315 160.584C370.538 160.584 369.885 160.804 369.357 161.244C368.829 161.684 368.507 162.285 368.389 163.048H374.219C374.102 162.3 373.779 161.706 373.251 161.266C372.723 160.811 372.078 160.584 371.315 160.584ZM383.72 170.176C382.738 170.176 381.777 170.059 380.838 169.824C379.9 169.575 379.152 169.267 378.594 168.9L379.738 166.436C380.266 166.773 380.904 167.052 381.652 167.272C382.4 167.477 383.134 167.58 383.852 167.58C385.304 167.58 386.03 167.221 386.03 166.502C386.03 166.165 385.832 165.923 385.436 165.776C385.04 165.629 384.432 165.505 383.61 165.402C382.642 165.255 381.843 165.087 381.212 164.896C380.582 164.705 380.032 164.368 379.562 163.884C379.108 163.4 378.88 162.711 378.88 161.816C378.88 161.068 379.093 160.408 379.518 159.836C379.958 159.249 380.589 158.795 381.41 158.472C382.246 158.149 383.229 157.988 384.358 157.988C385.194 157.988 386.023 158.083 386.844 158.274C387.68 158.45 388.37 158.699 388.912 159.022L387.768 161.464C386.727 160.877 385.59 160.584 384.358 160.584C383.625 160.584 383.075 160.687 382.708 160.892C382.342 161.097 382.158 161.361 382.158 161.684C382.158 162.051 382.356 162.307 382.752 162.454C383.148 162.601 383.779 162.74 384.644 162.872C385.612 163.033 386.404 163.209 387.02 163.4C387.636 163.576 388.172 163.906 388.626 164.39C389.081 164.874 389.308 165.549 389.308 166.414C389.308 167.147 389.088 167.8 388.648 168.372C388.208 168.944 387.563 169.391 386.712 169.714C385.876 170.022 384.879 170.176 383.72 170.176ZM137.58 184.988C138.68 184.988 139.677 185.245 140.572 185.758C141.481 186.257 142.193 186.968 142.706 187.892C143.219 188.801 143.476 189.865 143.476 191.082C143.476 192.299 143.219 193.37 142.706 194.294C142.193 195.203 141.481 195.915 140.572 196.428C139.677 196.927 138.68 197.176 137.58 197.176C136.069 197.176 134.881 196.699 134.016 195.746V201.268H130.584V185.164H133.862V186.528C134.713 185.501 135.952 184.988 137.58 184.988ZM136.986 194.36C137.866 194.36 138.585 194.067 139.142 193.48C139.714 192.879 140 192.079 140 191.082C140 190.085 139.714 189.293 139.142 188.706C138.585 188.105 137.866 187.804 136.986 187.804C136.106 187.804 135.38 188.105 134.808 188.706C134.251 189.293 133.972 190.085 133.972 191.082C133.972 192.079 134.251 192.879 134.808 193.48C135.38 194.067 136.106 194.36 136.986 194.36ZM149.051 186.726C149.462 186.154 150.012 185.721 150.701 185.428C151.405 185.135 152.212 184.988 153.121 184.988V188.156C152.74 188.127 152.483 188.112 152.351 188.112C151.369 188.112 150.599 188.391 150.041 188.948C149.484 189.491 149.205 190.312 149.205 191.412V197H145.773V185.164H149.051V186.726ZM160.687 197.176C159.44 197.176 158.318 196.919 157.321 196.406C156.338 195.878 155.568 195.152 155.011 194.228C154.453 193.304 154.175 192.255 154.175 191.082C154.175 189.909 154.453 188.86 155.011 187.936C155.568 187.012 156.338 186.293 157.321 185.78C158.318 185.252 159.44 184.988 160.687 184.988C161.933 184.988 163.048 185.252 164.031 185.78C165.013 186.293 165.783 187.012 166.341 187.936C166.898 188.86 167.177 189.909 167.177 191.082C167.177 192.255 166.898 193.304 166.341 194.228C165.783 195.152 165.013 195.878 164.031 196.406C163.048 196.919 161.933 197.176 160.687 197.176ZM160.687 194.36C161.567 194.36 162.285 194.067 162.843 193.48C163.415 192.879 163.701 192.079 163.701 191.082C163.701 190.085 163.415 189.293 162.843 188.706C162.285 188.105 161.567 187.804 160.687 187.804C159.807 187.804 159.081 188.105 158.509 188.706C157.937 189.293 157.651 190.085 157.651 191.082C157.651 192.079 157.937 192.879 158.509 193.48C159.081 194.067 159.807 194.36 160.687 194.36ZM177.105 196.428C176.767 196.677 176.349 196.868 175.851 197C175.367 197.117 174.853 197.176 174.311 197.176C172.903 197.176 171.81 196.817 171.033 196.098C170.27 195.379 169.889 194.323 169.889 192.93V188.068H168.063V185.428H169.889V182.546H173.321V185.428H176.269V188.068H173.321V192.886C173.321 193.385 173.445 193.773 173.695 194.052C173.959 194.316 174.325 194.448 174.795 194.448C175.337 194.448 175.799 194.301 176.181 194.008L177.105 196.428ZM190.26 191.126C190.26 191.17 190.238 191.478 190.194 192.05H181.24C181.401 192.783 181.783 193.363 182.384 193.788C182.985 194.213 183.733 194.426 184.628 194.426C185.244 194.426 185.787 194.338 186.256 194.162C186.74 193.971 187.187 193.678 187.598 193.282L189.424 195.262C188.309 196.538 186.681 197.176 184.54 197.176C183.205 197.176 182.025 196.919 180.998 196.406C179.971 195.878 179.179 195.152 178.622 194.228C178.065 193.304 177.786 192.255 177.786 191.082C177.786 189.923 178.057 188.882 178.6 187.958C179.157 187.019 179.913 186.293 180.866 185.78C181.834 185.252 182.912 184.988 184.1 184.988C185.259 184.988 186.307 185.237 187.246 185.736C188.185 186.235 188.918 186.953 189.446 187.892C189.989 188.816 190.26 189.894 190.26 191.126ZM184.122 187.584C183.345 187.584 182.692 187.804 182.164 188.244C181.636 188.684 181.313 189.285 181.196 190.048H187.026C186.909 189.3 186.586 188.706 186.058 188.266C185.53 187.811 184.885 187.584 184.122 187.584ZM198.265 197.176C197.004 197.176 195.867 196.919 194.855 196.406C193.858 195.878 193.073 195.152 192.501 194.228C191.944 193.304 191.665 192.255 191.665 191.082C191.665 189.909 191.944 188.86 192.501 187.936C193.073 187.012 193.858 186.293 194.855 185.78C195.867 185.252 197.004 184.988 198.265 184.988C199.512 184.988 200.597 185.252 201.521 185.78C202.46 186.293 203.142 187.034 203.567 188.002L200.905 189.432C200.289 188.347 199.402 187.804 198.243 187.804C197.348 187.804 196.608 188.097 196.021 188.684C195.434 189.271 195.141 190.07 195.141 191.082C195.141 192.094 195.434 192.893 196.021 193.48C196.608 194.067 197.348 194.36 198.243 194.36C199.416 194.36 200.304 193.817 200.905 192.732L203.567 194.184C203.142 195.123 202.46 195.856 201.521 196.384C200.597 196.912 199.512 197.176 198.265 197.176ZM213.349 196.428C213.012 196.677 212.594 196.868 212.095 197C211.611 197.117 211.098 197.176 210.555 197.176C209.147 197.176 208.054 196.817 207.277 196.098C206.514 195.379 206.133 194.323 206.133 192.93V188.068H204.307V185.428H206.133V182.546H209.565V185.428H212.513V188.068H209.565V192.886C209.565 193.385 209.69 193.773 209.939 194.052C210.203 194.316 210.57 194.448 211.039 194.448C211.582 194.448 212.044 194.301 212.425 194.008L213.349 196.428ZM226.504 191.126C226.504 191.17 226.482 191.478 226.438 192.05H217.484C217.646 192.783 218.027 193.363 218.628 193.788C219.23 194.213 219.978 194.426 220.872 194.426C221.488 194.426 222.031 194.338 222.5 194.162C222.984 193.971 223.432 193.678 223.842 193.282L225.668 195.262C224.554 196.538 222.926 197.176 220.784 197.176C219.45 197.176 218.269 196.919 217.242 196.406C216.216 195.878 215.424 195.152 214.866 194.228C214.309 193.304 214.03 192.255 214.03 191.082C214.03 189.923 214.302 188.882 214.844 187.958C215.402 187.019 216.157 186.293 217.11 185.78C218.078 185.252 219.156 184.988 220.344 184.988C221.503 184.988 222.552 185.237 223.49 185.736C224.429 186.235 225.162 186.953 225.69 187.892C226.233 188.816 226.504 189.894 226.504 191.126ZM220.366 187.584C219.589 187.584 218.936 187.804 218.408 188.244C217.88 188.684 217.558 189.285 217.44 190.048H223.27C223.153 189.3 222.83 188.706 222.302 188.266C221.774 187.811 221.129 187.584 220.366 187.584ZM240.845 180.676V197H237.567V195.636C236.716 196.663 235.484 197.176 233.871 197.176C232.756 197.176 231.744 196.927 230.835 196.428C229.94 195.929 229.236 195.218 228.723 194.294C228.21 193.37 227.953 192.299 227.953 191.082C227.953 189.865 228.21 188.794 228.723 187.87C229.236 186.946 229.94 186.235 230.835 185.736C231.744 185.237 232.756 184.988 233.871 184.988C235.382 184.988 236.562 185.465 237.413 186.418V180.676H240.845ZM234.465 194.36C235.33 194.36 236.049 194.067 236.621 193.48C237.193 192.879 237.479 192.079 237.479 191.082C237.479 190.085 237.193 189.293 236.621 188.706C236.049 188.105 235.33 187.804 234.465 187.804C233.585 187.804 232.859 188.105 232.287 188.706C231.715 189.293 231.429 190.085 231.429 191.082C231.429 192.079 231.715 192.879 232.287 193.48C232.859 194.067 233.585 194.36 234.465 194.36Z" fill="#F3F3F3"/>
<path d="M130.826 300.6H134.39V316H130.826V300.6ZM141.785 316.176C140.802 316.176 139.841 316.059 138.903 315.824C137.964 315.575 137.216 315.267 136.659 314.9L137.803 312.436C138.331 312.773 138.969 313.052 139.717 313.272C140.465 313.477 141.198 313.58 141.917 313.58C143.369 313.58 144.095 313.221 144.095 312.502C144.095 312.165 143.897 311.923 143.501 311.776C143.105 311.629 142.496 311.505 141.675 311.402C140.707 311.255 139.907 311.087 139.277 310.896C138.646 310.705 138.096 310.368 137.627 309.884C137.172 309.4 136.945 308.711 136.945 307.816C136.945 307.068 137.157 306.408 137.583 305.836C138.023 305.249 138.653 304.795 139.475 304.472C140.311 304.149 141.293 303.988 142.423 303.988C143.259 303.988 144.087 304.083 144.909 304.274C145.745 304.45 146.434 304.699 146.977 305.022L145.833 307.464C144.791 306.877 143.655 306.584 142.423 306.584C141.689 306.584 141.139 306.687 140.773 306.892C140.406 307.097 140.223 307.361 140.223 307.684C140.223 308.051 140.421 308.307 140.817 308.454C141.213 308.601 141.843 308.74 142.709 308.872C143.677 309.033 144.469 309.209 145.085 309.4C145.701 309.576 146.236 309.906 146.691 310.39C147.145 310.874 147.373 311.549 147.373 312.414C147.373 313.147 147.153 313.8 146.713 314.372C146.273 314.944 145.627 315.391 144.777 315.714C143.941 316.022 142.943 316.176 141.785 316.176ZM153.472 316.176C152.49 316.176 151.529 316.059 150.59 315.824C149.652 315.575 148.904 315.267 148.346 314.9L149.49 312.436C150.018 312.773 150.656 313.052 151.404 313.272C152.152 313.477 152.886 313.58 153.604 313.58C155.056 313.58 155.782 313.221 155.782 312.502C155.782 312.165 155.584 311.923 155.188 311.776C154.792 311.629 154.184 311.505 153.362 311.402C152.394 311.255 151.595 311.087 150.964 310.896C150.334 310.705 149.784 310.368 149.314 309.884C148.86 309.4 148.632 308.711 148.632 307.816C148.632 307.068 148.845 306.408 149.27 305.836C149.71 305.249 150.341 304.795 151.162 304.472C151.998 304.149 152.981 303.988 154.11 303.988C154.946 303.988 155.775 304.083 156.596 304.274C157.432 304.45 158.122 304.699 158.664 305.022L157.52 307.464C156.479 306.877 155.342 306.584 154.11 306.584C153.377 306.584 152.827 306.687 152.46 306.892C152.094 307.097 151.91 307.361 151.91 307.684C151.91 308.051 152.108 308.307 152.504 308.454C152.9 308.601 153.531 308.74 154.396 308.872C155.364 309.033 156.156 309.209 156.772 309.4C157.388 309.576 157.924 309.906 158.378 310.39C158.833 310.874 159.06 311.549 159.06 312.414C159.06 313.147 158.84 313.8 158.4 314.372C157.96 314.944 157.315 315.391 156.464 315.714C155.628 316.022 154.631 316.176 153.472 316.176ZM173.102 304.164V316H169.846V314.592C169.391 315.105 168.848 315.501 168.218 315.78C167.587 316.044 166.905 316.176 166.172 316.176C164.617 316.176 163.385 315.729 162.476 314.834C161.566 313.939 161.112 312.612 161.112 310.852V304.164H164.544V310.346C164.544 312.253 165.343 313.206 166.942 313.206C167.763 313.206 168.423 312.942 168.922 312.414C169.42 311.871 169.67 311.072 169.67 310.016V304.164H173.102ZM187.875 310.126C187.875 310.17 187.853 310.478 187.809 311.05H178.855C179.017 311.783 179.398 312.363 179.999 312.788C180.601 313.213 181.349 313.426 182.243 313.426C182.859 313.426 183.402 313.338 183.871 313.162C184.355 312.971 184.803 312.678 185.213 312.282L187.039 314.262C185.925 315.538 184.297 316.176 182.155 316.176C180.821 316.176 179.64 315.919 178.613 315.406C177.587 314.878 176.795 314.152 176.237 313.228C175.68 312.304 175.401 311.255 175.401 310.082C175.401 308.923 175.673 307.882 176.215 306.958C176.773 306.019 177.528 305.293 178.481 304.78C179.449 304.252 180.527 303.988 181.715 303.988C182.874 303.988 183.923 304.237 184.861 304.736C185.8 305.235 186.533 305.953 187.061 306.892C187.604 307.816 187.875 308.894 187.875 310.126ZM181.737 306.584C180.96 306.584 180.307 306.804 179.779 307.244C179.251 307.684 178.929 308.285 178.811 309.048H184.641C184.524 308.3 184.201 307.706 183.673 307.266C183.145 306.811 182.5 306.584 181.737 306.584ZM194.142 316.176C193.16 316.176 192.199 316.059 191.26 315.824C190.322 315.575 189.574 315.267 189.016 314.9L190.16 312.436C190.688 312.773 191.326 313.052 192.074 313.272C192.822 313.477 193.556 313.58 194.274 313.58C195.726 313.58 196.452 313.221 196.452 312.502C196.452 312.165 196.254 311.923 195.858 311.776C195.462 311.629 194.854 311.505 194.032 311.402C193.064 311.255 192.265 311.087 191.634 310.896C191.004 310.705 190.454 310.368 189.984 309.884C189.53 309.4 189.302 308.711 189.302 307.816C189.302 307.068 189.515 306.408 189.94 305.836C190.38 305.249 191.011 304.795 191.832 304.472C192.668 304.149 193.651 303.988 194.78 303.988C195.616 303.988 196.445 304.083 197.266 304.274C198.102 304.45 198.792 304.699 199.334 305.022L198.19 307.464C197.149 306.877 196.012 306.584 194.78 306.584C194.047 306.584 193.497 306.687 193.13 306.892C192.764 307.097 192.58 307.361 192.58 307.684C192.58 308.051 192.778 308.307 193.174 308.454C193.57 308.601 194.201 308.74 195.066 308.872C196.034 309.033 196.826 309.209 197.442 309.4C198.058 309.576 198.594 309.906 199.048 310.39C199.503 310.874 199.73 311.549 199.73 312.414C199.73 313.147 199.51 313.8 199.07 314.372C198.63 314.944 197.985 315.391 197.134 315.714C196.298 316.022 195.301 316.176 194.142 316.176ZM220.134 299.676V316H216.856V314.636C216.005 315.663 214.773 316.176 213.16 316.176C212.045 316.176 211.033 315.927 210.124 315.428C209.229 314.929 208.525 314.218 208.012 313.294C207.499 312.37 207.242 311.299 207.242 310.082C207.242 308.865 207.499 307.794 208.012 306.87C208.525 305.946 209.229 305.235 210.124 304.736C211.033 304.237 212.045 303.988 213.16 303.988C214.671 303.988 215.851 304.465 216.702 305.418V299.676H220.134ZM213.754 313.36C214.619 313.36 215.338 313.067 215.91 312.48C216.482 311.879 216.768 311.079 216.768 310.082C216.768 309.085 216.482 308.293 215.91 307.706C215.338 307.105 214.619 306.804 213.754 306.804C212.874 306.804 212.148 307.105 211.576 307.706C211.004 308.293 210.718 309.085 210.718 310.082C210.718 311.079 211.004 311.879 211.576 312.48C212.148 313.067 212.874 313.36 213.754 313.36ZM223.311 304.164H226.743V316H223.311V304.164ZM225.027 302.514C224.396 302.514 223.883 302.331 223.487 301.964C223.091 301.597 222.893 301.143 222.893 300.6C222.893 300.057 223.091 299.603 223.487 299.236C223.883 298.869 224.396 298.686 225.027 298.686C225.657 298.686 226.171 298.862 226.567 299.214C226.963 299.566 227.161 300.006 227.161 300.534C227.161 301.106 226.963 301.583 226.567 301.964C226.171 302.331 225.657 302.514 225.027 302.514ZM233.91 316.176C232.927 316.176 231.966 316.059 231.028 315.824C230.089 315.575 229.341 315.267 228.784 314.9L229.928 312.436C230.456 312.773 231.094 313.052 231.842 313.272C232.59 313.477 233.323 313.58 234.042 313.58C235.494 313.58 236.22 313.221 236.22 312.502C236.22 312.165 236.022 311.923 235.626 311.776C235.23 311.629 234.621 311.505 233.8 311.402C232.832 311.255 232.032 311.087 231.402 310.896C230.771 310.705 230.221 310.368 229.752 309.884C229.297 309.4 229.07 308.711 229.07 307.816C229.07 307.068 229.282 306.408 229.708 305.836C230.148 305.249 230.778 304.795 231.6 304.472C232.436 304.149 233.418 303.988 234.548 303.988C235.384 303.988 236.212 304.083 237.034 304.274C237.87 304.45 238.559 304.699 239.102 305.022L237.958 307.464C236.916 306.877 235.78 306.584 234.548 306.584C233.814 306.584 233.264 306.687 232.898 306.892C232.531 307.097 232.348 307.361 232.348 307.684C232.348 308.051 232.546 308.307 232.942 308.454C233.338 308.601 233.968 308.74 234.834 308.872C235.802 309.033 236.594 309.209 237.21 309.4C237.826 309.576 238.361 309.906 238.816 310.39C239.27 310.874 239.498 311.549 239.498 312.414C239.498 313.147 239.278 313.8 238.838 314.372C238.398 314.944 237.752 315.391 236.902 315.714C236.066 316.022 235.068 316.176 233.91 316.176ZM247.335 316.176C246.074 316.176 244.937 315.919 243.925 315.406C242.928 314.878 242.143 314.152 241.571 313.228C241.014 312.304 240.735 311.255 240.735 310.082C240.735 308.909 241.014 307.86 241.571 306.936C242.143 306.012 242.928 305.293 243.925 304.78C244.937 304.252 246.074 303.988 247.335 303.988C248.582 303.988 249.667 304.252 250.591 304.78C251.53 305.293 252.212 306.034 252.637 307.002L249.975 308.432C249.359 307.347 248.472 306.804 247.313 306.804C246.419 306.804 245.678 307.097 245.091 307.684C244.505 308.271 244.211 309.07 244.211 310.082C244.211 311.094 244.505 311.893 245.091 312.48C245.678 313.067 246.419 313.36 247.313 313.36C248.487 313.36 249.374 312.817 249.975 311.732L252.637 313.184C252.212 314.123 251.53 314.856 250.591 315.384C249.667 315.912 248.582 316.176 247.335 316.176ZM260.095 316.176C258.848 316.176 257.726 315.919 256.729 315.406C255.746 314.878 254.976 314.152 254.419 313.228C253.862 312.304 253.583 311.255 253.583 310.082C253.583 308.909 253.862 307.86 254.419 306.936C254.976 306.012 255.746 305.293 256.729 304.78C257.726 304.252 258.848 303.988 260.095 303.988C261.342 303.988 262.456 304.252 263.439 304.78C264.422 305.293 265.192 306.012 265.749 306.936C266.306 307.86 266.585 308.909 266.585 310.082C266.585 311.255 266.306 312.304 265.749 313.228C265.192 314.152 264.422 314.878 263.439 315.406C262.456 315.919 261.342 316.176 260.095 316.176ZM260.095 313.36C260.975 313.36 261.694 313.067 262.251 312.48C262.823 311.879 263.109 311.079 263.109 310.082C263.109 309.085 262.823 308.293 262.251 307.706C261.694 307.105 260.975 306.804 260.095 306.804C259.215 306.804 258.489 307.105 257.917 307.706C257.345 308.293 257.059 309.085 257.059 310.082C257.059 311.079 257.345 311.879 257.917 312.48C258.489 313.067 259.215 313.36 260.095 313.36ZM280.305 304.164L275.311 316H271.769L266.797 304.164H270.339L273.617 312.216L277.005 304.164H280.305ZM292.977 310.126C292.977 310.17 292.955 310.478 292.911 311.05H283.957C284.118 311.783 284.499 312.363 285.101 312.788C285.702 313.213 286.45 313.426 287.345 313.426C287.961 313.426 288.503 313.338 288.973 313.162C289.457 312.971 289.904 312.678 290.315 312.282L292.141 314.262C291.026 315.538 289.398 316.176 287.257 316.176C285.922 316.176 284.741 315.919 283.715 315.406C282.688 314.878 281.896 314.152 281.339 313.228C280.781 312.304 280.503 311.255 280.503 310.082C280.503 308.923 280.774 307.882 281.317 306.958C281.874 306.019 282.629 305.293 283.583 304.78C284.551 304.252 285.629 303.988 286.817 303.988C287.975 303.988 289.024 304.237 289.963 304.736C290.901 305.235 291.635 305.953 292.163 306.892C292.705 307.816 292.977 308.894 292.977 310.126ZM286.839 306.584C286.061 306.584 285.409 306.804 284.881 307.244C284.353 307.684 284.03 308.285 283.913 309.048H289.743C289.625 308.3 289.303 307.706 288.775 307.266C288.247 306.811 287.601 306.584 286.839 306.584ZM298.54 305.726C298.95 305.154 299.5 304.721 300.19 304.428C300.894 304.135 301.7 303.988 302.61 303.988V307.156C302.228 307.127 301.972 307.112 301.84 307.112C300.857 307.112 300.087 307.391 299.53 307.948C298.972 308.491 298.694 309.312 298.694 310.412V316H295.262V304.164H298.54V305.726ZM316.137 310.126C316.137 310.17 316.115 310.478 316.071 311.05H307.117C307.278 311.783 307.66 312.363 308.261 312.788C308.862 313.213 309.61 313.426 310.505 313.426C311.121 313.426 311.664 313.338 312.133 313.162C312.617 312.971 313.064 312.678 313.475 312.282L315.301 314.262C314.186 315.538 312.558 316.176 310.417 316.176C309.082 316.176 307.902 315.919 306.875 315.406C305.848 314.878 305.056 314.152 304.499 313.228C303.942 312.304 303.663 311.255 303.663 310.082C303.663 308.923 303.934 307.882 304.477 306.958C305.034 306.019 305.79 305.293 306.743 304.78C307.711 304.252 308.789 303.988 309.977 303.988C311.136 303.988 312.184 304.237 313.123 304.736C314.062 305.235 314.795 305.953 315.323 306.892C315.866 307.816 316.137 308.894 316.137 310.126ZM309.999 306.584C309.222 306.584 308.569 306.804 308.041 307.244C307.513 307.684 307.19 308.285 307.073 309.048H312.903C312.786 308.3 312.463 307.706 311.935 307.266C311.407 306.811 310.762 306.584 309.999 306.584ZM330.478 299.676V316H327.2V314.636C326.349 315.663 325.117 316.176 323.504 316.176C322.389 316.176 321.377 315.927 320.468 315.428C319.573 314.929 318.869 314.218 318.356 313.294C317.843 312.37 317.586 311.299 317.586 310.082C317.586 308.865 317.843 307.794 318.356 306.87C318.869 305.946 319.573 305.235 320.468 304.736C321.377 304.237 322.389 303.988 323.504 303.988C325.015 303.988 326.195 304.465 327.046 305.418V299.676H330.478ZM324.098 313.36C324.963 313.36 325.682 313.067 326.254 312.48C326.826 311.879 327.112 311.079 327.112 310.082C327.112 309.085 326.826 308.293 326.254 307.706C325.682 307.105 324.963 306.804 324.098 306.804C323.218 306.804 322.492 307.105 321.92 307.706C321.348 308.293 321.062 309.085 321.062 310.082C321.062 311.079 321.348 311.879 321.92 312.48C322.492 313.067 323.218 313.36 324.098 313.36Z" fill="#F3F3F3"/>
<path d="M140.968 461.7H133.818L132.454 465H128.802L135.666 449.6H139.186L146.072 465H142.332L140.968 461.7ZM139.846 458.994L137.404 453.098L134.962 458.994H139.846ZM154.622 452.988C156.088 452.988 157.269 453.428 158.164 454.308C159.073 455.188 159.528 456.493 159.528 458.224V465H156.096V458.752C156.096 457.813 155.89 457.117 155.48 456.662C155.069 456.193 154.475 455.958 153.698 455.958C152.832 455.958 152.143 456.229 151.63 456.772C151.116 457.3 150.86 458.092 150.86 459.148V465H147.428V453.164H150.706V454.55C151.16 454.051 151.725 453.67 152.4 453.406C153.074 453.127 153.815 452.988 154.622 452.988ZM167.413 452.988C169.246 452.988 170.654 453.428 171.637 454.308C172.619 455.173 173.111 456.486 173.111 458.246V465H169.899V463.526C169.253 464.626 168.051 465.176 166.291 465.176C165.381 465.176 164.589 465.022 163.915 464.714C163.255 464.406 162.749 463.981 162.397 463.438C162.045 462.895 161.869 462.279 161.869 461.59C161.869 460.49 162.279 459.625 163.101 458.994C163.937 458.363 165.22 458.048 166.951 458.048H169.679C169.679 457.3 169.451 456.728 168.997 456.332C168.542 455.921 167.86 455.716 166.951 455.716C166.32 455.716 165.697 455.819 165.081 456.024C164.479 456.215 163.966 456.479 163.541 456.816L162.309 454.418C162.954 453.963 163.724 453.611 164.619 453.362C165.528 453.113 166.459 452.988 167.413 452.988ZM167.149 462.866C167.735 462.866 168.256 462.734 168.711 462.47C169.165 462.191 169.488 461.788 169.679 461.26V460.05H167.325C165.917 460.05 165.213 460.512 165.213 461.436C165.213 461.876 165.381 462.228 165.719 462.492C166.071 462.741 166.547 462.866 167.149 462.866ZM176.217 448.676H179.649V465H176.217V448.676ZM194.582 453.164L189.236 465.726C188.693 467.09 188.019 468.051 187.212 468.608C186.42 469.165 185.459 469.444 184.33 469.444C183.714 469.444 183.105 469.349 182.504 469.158C181.903 468.967 181.411 468.703 181.03 468.366L182.284 465.924C182.548 466.159 182.849 466.342 183.186 466.474C183.538 466.606 183.883 466.672 184.22 466.672C184.689 466.672 185.071 466.555 185.364 466.32C185.657 466.1 185.921 465.726 186.156 465.198L186.2 465.088L181.074 453.164H184.616L187.938 461.194L191.282 453.164H194.582ZM199.793 465.176C198.81 465.176 197.849 465.059 196.911 464.824C195.972 464.575 195.224 464.267 194.667 463.9L195.811 461.436C196.339 461.773 196.977 462.052 197.725 462.272C198.473 462.477 199.206 462.58 199.925 462.58C201.377 462.58 202.103 462.221 202.103 461.502C202.103 461.165 201.905 460.923 201.509 460.776C201.113 460.629 200.504 460.505 199.683 460.402C198.715 460.255 197.915 460.087 197.285 459.896C196.654 459.705 196.104 459.368 195.635 458.884C195.18 458.4 194.953 457.711 194.953 456.816C194.953 456.068 195.165 455.408 195.591 454.836C196.031 454.249 196.661 453.795 197.483 453.472C198.319 453.149 199.301 452.988 200.431 452.988C201.267 452.988 202.095 453.083 202.917 453.274C203.753 453.45 204.442 453.699 204.985 454.022L203.841 456.464C202.799 455.877 201.663 455.584 200.431 455.584C199.697 455.584 199.147 455.687 198.781 455.892C198.414 456.097 198.231 456.361 198.231 456.684C198.231 457.051 198.429 457.307 198.825 457.454C199.221 457.601 199.851 457.74 200.717 457.872C201.685 458.033 202.477 458.209 203.093 458.4C203.709 458.576 204.244 458.906 204.699 459.39C205.153 459.874 205.381 460.549 205.381 461.414C205.381 462.147 205.161 462.8 204.721 463.372C204.281 463.944 203.635 464.391 202.785 464.714C201.949 465.022 200.951 465.176 199.793 465.176ZM219.092 459.126C219.092 459.17 219.07 459.478 219.026 460.05H210.072C210.233 460.783 210.615 461.363 211.216 461.788C211.817 462.213 212.565 462.426 213.46 462.426C214.076 462.426 214.619 462.338 215.088 462.162C215.572 461.971 216.019 461.678 216.43 461.282L218.256 463.262C217.141 464.538 215.513 465.176 213.372 465.176C212.037 465.176 210.857 464.919 209.83 464.406C208.803 463.878 208.011 463.152 207.454 462.228C206.897 461.304 206.618 460.255 206.618 459.082C206.618 457.923 206.889 456.882 207.432 455.958C207.989 455.019 208.745 454.293 209.698 453.78C210.666 453.252 211.744 452.988 212.932 452.988C214.091 452.988 215.139 453.237 216.078 453.736C217.017 454.235 217.75 454.953 218.278 455.892C218.821 456.816 219.092 457.894 219.092 459.126ZM212.954 455.584C212.177 455.584 211.524 455.804 210.996 456.244C210.468 456.684 210.145 457.285 210.028 458.048H215.858C215.741 457.3 215.418 456.706 214.89 456.266C214.362 455.811 213.717 455.584 212.954 455.584ZM225.359 465.176C224.376 465.176 223.416 465.059 222.477 464.824C221.538 464.575 220.79 464.267 220.233 463.9L221.377 461.436C221.905 461.773 222.543 462.052 223.291 462.272C224.039 462.477 224.772 462.58 225.491 462.58C226.943 462.58 227.669 462.221 227.669 461.502C227.669 461.165 227.471 460.923 227.075 460.776C226.679 460.629 226.07 460.505 225.249 460.402C224.281 460.255 223.482 460.087 222.851 459.896C222.22 459.705 221.67 459.368 221.201 458.884C220.746 458.4 220.519 457.711 220.519 456.816C220.519 456.068 220.732 455.408 221.157 454.836C221.597 454.249 222.228 453.795 223.049 453.472C223.885 453.149 224.868 452.988 225.997 452.988C226.833 452.988 227.662 453.083 228.483 453.274C229.319 453.45 230.008 453.699 230.551 454.022L229.407 456.464C228.366 455.877 227.229 455.584 225.997 455.584C225.264 455.584 224.714 455.687 224.347 455.892C223.98 456.097 223.797 456.361 223.797 456.684C223.797 457.051 223.995 457.307 224.391 457.454C224.787 457.601 225.418 457.74 226.283 457.872C227.251 458.033 228.043 458.209 228.659 458.4C229.275 458.576 229.81 458.906 230.265 459.39C230.72 459.874 230.947 460.549 230.947 461.414C230.947 462.147 230.727 462.8 230.287 463.372C229.847 463.944 229.202 464.391 228.351 464.714C227.515 465.022 226.518 465.176 225.359 465.176ZM244.069 452.988C245.902 452.988 247.31 453.428 248.293 454.308C249.276 455.173 249.767 456.486 249.767 458.246V465H246.555V463.526C245.91 464.626 244.707 465.176 242.947 465.176C242.038 465.176 241.246 465.022 240.571 464.714C239.911 464.406 239.405 463.981 239.053 463.438C238.701 462.895 238.525 462.279 238.525 461.59C238.525 460.49 238.936 459.625 239.757 458.994C240.593 458.363 241.876 458.048 243.607 458.048H246.335C246.335 457.3 246.108 456.728 245.653 456.332C245.198 455.921 244.516 455.716 243.607 455.716C242.976 455.716 242.353 455.819 241.737 456.024C241.136 456.215 240.622 456.479 240.197 456.816L238.965 454.418C239.61 453.963 240.38 453.611 241.275 453.362C242.184 453.113 243.116 452.988 244.069 452.988ZM243.805 462.866C244.392 462.866 244.912 462.734 245.367 462.47C245.822 462.191 246.144 461.788 246.335 461.26V460.05H243.981C242.573 460.05 241.869 460.512 241.869 461.436C241.869 461.876 242.038 462.228 242.375 462.492C242.727 462.741 243.204 462.866 243.805 462.866ZM264.406 453.164L259.412 465H255.87L250.898 453.164H254.44L257.718 461.216L261.106 453.164H264.406ZM270.194 452.988C272.027 452.988 273.435 453.428 274.418 454.308C275.401 455.173 275.892 456.486 275.892 458.246V465H272.68V463.526C272.035 464.626 270.832 465.176 269.072 465.176C268.163 465.176 267.371 465.022 266.696 464.714C266.036 464.406 265.53 463.981 265.178 463.438C264.826 462.895 264.65 462.279 264.65 461.59C264.65 460.49 265.061 459.625 265.882 458.994C266.718 458.363 268.001 458.048 269.732 458.048H272.46C272.46 457.3 272.233 456.728 271.778 456.332C271.323 455.921 270.641 455.716 269.732 455.716C269.101 455.716 268.478 455.819 267.862 456.024C267.261 456.215 266.747 456.479 266.322 456.816L265.09 454.418C265.735 453.963 266.505 453.611 267.4 453.362C268.309 453.113 269.241 452.988 270.194 452.988ZM269.93 462.866C270.517 462.866 271.037 462.734 271.492 462.47C271.947 462.191 272.269 461.788 272.46 461.26V460.05H270.106C268.698 460.05 267.994 460.512 267.994 461.436C267.994 461.876 268.163 462.228 268.5 462.492C268.852 462.741 269.329 462.866 269.93 462.866ZM278.998 453.164H282.43V465H278.998V453.164ZM280.714 451.514C280.083 451.514 279.57 451.331 279.174 450.964C278.778 450.597 278.58 450.143 278.58 449.6C278.58 449.057 278.778 448.603 279.174 448.236C279.57 447.869 280.083 447.686 280.714 447.686C281.345 447.686 281.858 447.862 282.254 448.214C282.65 448.566 282.848 449.006 282.848 449.534C282.848 450.106 282.65 450.583 282.254 450.964C281.858 451.331 281.345 451.514 280.714 451.514ZM285.615 448.676H289.047V465H285.615V448.676ZM297.006 452.988C298.84 452.988 300.248 453.428 301.23 454.308C302.213 455.173 302.704 456.486 302.704 458.246V465H299.492V463.526C298.847 464.626 297.644 465.176 295.884 465.176C294.975 465.176 294.183 465.022 293.508 464.714C292.848 464.406 292.342 463.981 291.99 463.438C291.638 462.895 291.462 462.279 291.462 461.59C291.462 460.49 291.873 459.625 292.694 458.994C293.53 458.363 294.814 458.048 296.544 458.048H299.272C299.272 457.3 299.045 456.728 298.59 456.332C298.136 455.921 297.454 455.716 296.544 455.716C295.914 455.716 295.29 455.819 294.674 456.024C294.073 456.215 293.56 456.479 293.134 456.816L291.902 454.418C292.548 453.963 293.318 453.611 294.212 453.362C295.122 453.113 296.053 452.988 297.006 452.988ZM296.742 462.866C297.329 462.866 297.85 462.734 298.304 462.47C298.759 462.191 299.082 461.788 299.272 461.26V460.05H296.918C295.51 460.05 294.806 460.512 294.806 461.436C294.806 461.876 294.975 462.228 295.312 462.492C295.664 462.741 296.141 462.866 296.742 462.866ZM312.807 452.988C313.907 452.988 314.904 453.245 315.799 453.758C316.708 454.257 317.419 454.968 317.933 455.892C318.446 456.801 318.703 457.865 318.703 459.082C318.703 460.299 318.446 461.37 317.933 462.294C317.419 463.203 316.708 463.915 315.799 464.428C314.904 464.927 313.907 465.176 312.807 465.176C311.179 465.176 309.939 464.663 309.089 463.636V465H305.811V448.676H309.243V454.418C310.108 453.465 311.296 452.988 312.807 452.988ZM312.213 462.36C313.093 462.36 313.811 462.067 314.369 461.48C314.941 460.879 315.227 460.079 315.227 459.082C315.227 458.085 314.941 457.293 314.369 456.706C313.811 456.105 313.093 455.804 312.213 455.804C311.333 455.804 310.607 456.105 310.035 456.706C309.477 457.293 309.199 458.085 309.199 459.082C309.199 460.079 309.477 460.879 310.035 461.48C310.607 462.067 311.333 462.36 312.213 462.36ZM321 448.676H324.432V465H321V448.676ZM339.211 459.126C339.211 459.17 339.189 459.478 339.145 460.05H330.191C330.353 460.783 330.734 461.363 331.335 461.788C331.937 462.213 332.685 462.426 333.579 462.426C334.195 462.426 334.738 462.338 335.207 462.162C335.691 461.971 336.139 461.678 336.549 461.282L338.375 463.262C337.261 464.538 335.633 465.176 333.491 465.176C332.157 465.176 330.976 464.919 329.949 464.406C328.923 463.878 328.131 463.152 327.573 462.228C327.016 461.304 326.737 460.255 326.737 459.082C326.737 457.923 327.009 456.882 327.551 455.958C328.109 455.019 328.864 454.293 329.817 453.78C330.785 453.252 331.863 452.988 333.051 452.988C334.21 452.988 335.259 453.237 336.197 453.736C337.136 454.235 337.869 454.953 338.397 455.892C338.94 456.816 339.211 457.894 339.211 459.126ZM333.073 455.584C332.296 455.584 331.643 455.804 331.115 456.244C330.587 456.684 330.265 457.285 330.147 458.048H335.977C335.86 457.3 335.537 456.706 335.009 456.266C334.481 455.811 333.836 455.584 333.073 455.584ZM354.723 452.988C355.823 452.988 356.82 453.245 357.715 453.758C358.624 454.257 359.335 454.968 359.849 455.892C360.362 456.801 360.619 457.865 360.619 459.082C360.619 460.299 360.362 461.37 359.849 462.294C359.335 463.203 358.624 463.915 357.715 464.428C356.82 464.927 355.823 465.176 354.723 465.176C353.212 465.176 352.024 464.699 351.159 463.746V469.268H347.727V453.164H351.005V454.528C351.855 453.501 353.095 452.988 354.723 452.988ZM354.129 462.36C355.009 462.36 355.727 462.067 356.285 461.48C356.857 460.879 357.143 460.079 357.143 459.082C357.143 458.085 356.857 457.293 356.285 456.706C355.727 456.105 355.009 455.804 354.129 455.804C353.249 455.804 352.523 456.105 351.951 456.706C351.393 457.293 351.115 458.085 351.115 459.082C351.115 460.079 351.393 460.879 351.951 461.48C352.523 462.067 353.249 462.36 354.129 462.36ZM374.51 459.126C374.51 459.17 374.488 459.478 374.444 460.05H365.49C365.651 460.783 366.033 461.363 366.634 461.788C367.235 462.213 367.983 462.426 368.878 462.426C369.494 462.426 370.037 462.338 370.506 462.162C370.99 461.971 371.437 461.678 371.848 461.282L373.674 463.262C372.559 464.538 370.931 465.176 368.79 465.176C367.455 465.176 366.275 464.919 365.248 464.406C364.221 463.878 363.429 463.152 362.872 462.228C362.315 461.304 362.036 460.255 362.036 459.082C362.036 457.923 362.307 456.882 362.85 455.958C363.407 455.019 364.163 454.293 365.116 453.78C366.084 453.252 367.162 452.988 368.35 452.988C369.509 452.988 370.557 453.237 371.496 453.736C372.435 454.235 373.168 454.953 373.696 455.892C374.239 456.816 374.51 457.894 374.51 459.126ZM368.372 455.584C367.595 455.584 366.942 455.804 366.414 456.244C365.886 456.684 365.563 457.285 365.446 458.048H371.276C371.159 457.3 370.836 456.706 370.308 456.266C369.78 455.811 369.135 455.584 368.372 455.584ZM380.073 454.726C380.484 454.154 381.034 453.721 381.723 453.428C382.427 453.135 383.234 452.988 384.143 452.988V456.156C383.762 456.127 383.505 456.112 383.373 456.112C382.39 456.112 381.62 456.391 381.063 456.948C380.506 457.491 380.227 458.312 380.227 459.412V465H376.795V453.164H380.073V454.726ZM145.742 479.988C147.223 479.988 148.397 480.428 149.262 481.308C150.142 482.173 150.582 483.479 150.582 485.224V492H147.15V485.752C147.15 484.813 146.952 484.117 146.556 483.662C146.175 483.193 145.625 482.958 144.906 482.958C144.099 482.958 143.461 483.222 142.992 483.75C142.523 484.263 142.288 485.033 142.288 486.06V492H138.856V485.752C138.856 483.889 138.108 482.958 136.612 482.958C135.82 482.958 135.189 483.222 134.72 483.75C134.251 484.263 134.016 485.033 134.016 486.06V492H130.584V480.164H133.862V481.528C134.302 481.029 134.837 480.648 135.468 480.384C136.113 480.12 136.817 479.988 137.58 479.988C138.416 479.988 139.171 480.157 139.846 480.494C140.521 480.817 141.063 481.293 141.474 481.924C141.958 481.308 142.567 480.831 143.3 480.494C144.048 480.157 144.862 479.988 145.742 479.988ZM159.419 492.176C158.172 492.176 157.05 491.919 156.053 491.406C155.07 490.878 154.3 490.152 153.743 489.228C153.186 488.304 152.907 487.255 152.907 486.082C152.907 484.909 153.186 483.86 153.743 482.936C154.3 482.012 155.07 481.293 156.053 480.78C157.05 480.252 158.172 479.988 159.419 479.988C160.666 479.988 161.78 480.252 162.763 480.78C163.746 481.293 164.516 482.012 165.073 482.936C165.63 483.86 165.909 484.909 165.909 486.082C165.909 487.255 165.63 488.304 165.073 489.228C164.516 490.152 163.746 490.878 162.763 491.406C161.78 491.919 160.666 492.176 159.419 492.176ZM159.419 489.36C160.299 489.36 161.018 489.067 161.575 488.48C162.147 487.879 162.433 487.079 162.433 486.082C162.433 485.085 162.147 484.293 161.575 483.706C161.018 483.105 160.299 482.804 159.419 482.804C158.539 482.804 157.813 483.105 157.241 483.706C156.669 484.293 156.383 485.085 156.383 486.082C156.383 487.079 156.669 487.879 157.241 488.48C157.813 489.067 158.539 489.36 159.419 489.36ZM175.397 479.988C176.864 479.988 178.044 480.428 178.939 481.308C179.848 482.188 180.303 483.493 180.303 485.224V492H176.871V485.752C176.871 484.813 176.666 484.117 176.255 483.662C175.844 483.193 175.25 482.958 174.473 482.958C173.608 482.958 172.918 483.229 172.405 483.772C171.892 484.3 171.635 485.092 171.635 486.148V492H168.203V480.164H171.481V481.55C171.936 481.051 172.5 480.67 173.175 480.406C173.85 480.127 174.59 479.988 175.397 479.988ZM191.048 491.428C190.711 491.677 190.293 491.868 189.794 492C189.31 492.117 188.797 492.176 188.254 492.176C186.846 492.176 185.753 491.817 184.976 491.098C184.213 490.379 183.832 489.323 183.832 487.93V483.068H182.006V480.428H183.832V477.546H187.264V480.428H190.212V483.068H187.264V487.886C187.264 488.385 187.389 488.773 187.638 489.052C187.902 489.316 188.269 489.448 188.738 489.448C189.281 489.448 189.743 489.301 190.124 489.008L191.048 491.428ZM200.169 479.988C201.635 479.988 202.816 480.428 203.711 481.308C204.62 482.188 205.075 483.493 205.075 485.224V492H201.643V485.752C201.643 484.813 201.437 484.117 201.027 483.662C200.616 483.193 200.022 482.958 199.245 482.958C198.379 482.958 197.69 483.229 197.177 483.772C196.663 484.3 196.407 485.092 196.407 486.148V492H192.975V475.676H196.407V481.396C196.861 480.941 197.411 480.597 198.057 480.362C198.702 480.113 199.406 479.988 200.169 479.988Z" fill="#F3F3F3"/>
<g filter="url(#filter2_d_201_468)">
<path d="M143.669 101.3V130H137.027V106.63H131.287V101.3H143.669ZM160.955 130.492C158.577 130.492 156.458 129.904 154.6 128.729C152.741 127.554 151.279 125.859 150.213 123.645C149.174 121.404 148.655 118.739 148.655 115.65C148.655 112.561 149.174 109.91 150.213 107.696C151.279 105.455 152.741 103.746 154.6 102.571C156.458 101.396 158.577 100.808 160.955 100.808C163.333 100.808 165.451 101.396 167.31 102.571C169.168 103.746 170.617 105.455 171.656 107.696C172.722 109.91 173.255 112.561 173.255 115.65C173.255 118.739 172.722 121.404 171.656 123.645C170.617 125.859 169.168 127.554 167.31 128.729C165.451 129.904 163.333 130.492 160.955 130.492ZM160.955 124.875C162.704 124.875 164.071 124.123 165.055 122.62C166.066 121.117 166.572 118.793 166.572 115.65C166.572 112.507 166.066 110.183 165.055 108.68C164.071 107.177 162.704 106.425 160.955 106.425C159.233 106.425 157.866 107.177 156.855 108.68C155.871 110.183 155.379 112.507 155.379 115.65C155.379 118.793 155.871 121.117 156.855 122.62C157.866 124.123 159.233 124.875 160.955 124.875ZM188.782 130.492C186.404 130.492 184.285 129.904 182.427 128.729C180.568 127.554 179.106 125.859 178.04 123.645C177.001 121.404 176.482 118.739 176.482 115.65C176.482 112.561 177.001 109.91 178.04 107.696C179.106 105.455 180.568 103.746 182.427 102.571C184.285 101.396 186.404 100.808 188.782 100.808C191.16 100.808 193.278 101.396 195.137 102.571C196.995 103.746 198.444 105.455 199.483 107.696C200.549 109.91 201.082 112.561 201.082 115.65C201.082 118.739 200.549 121.404 199.483 123.645C198.444 125.859 196.995 127.554 195.137 128.729C193.278 129.904 191.16 130.492 188.782 130.492ZM188.782 124.875C190.531 124.875 191.898 124.123 192.882 122.62C193.893 121.117 194.399 118.793 194.399 115.65C194.399 112.507 193.893 110.183 192.882 108.68C191.898 107.177 190.531 106.425 188.782 106.425C187.06 106.425 185.693 107.177 184.682 108.68C183.698 110.183 183.206 112.507 183.206 115.65C183.206 118.793 183.698 121.117 184.682 122.62C185.693 124.123 187.06 124.875 188.782 124.875ZM224.928 118.151H217.794V125.121H212.505V118.151H205.412V113.149H212.505V106.179H217.794V113.149H224.928V118.151Z" fill="white"/>
</g>
<g filter="url(#filter3_d_201_468)">
<path d="M153.042 271.588V277H131.353V272.695L142.423 262.24C143.598 261.119 144.391 260.163 144.801 259.37C145.211 258.55 145.416 257.744 145.416 256.951C145.416 255.803 145.02 254.928 144.227 254.327C143.462 253.698 142.327 253.384 140.824 253.384C139.567 253.384 138.432 253.63 137.421 254.122C136.41 254.587 135.562 255.297 134.879 256.254L130.041 253.138C131.162 251.471 132.706 250.172 134.674 249.243C136.642 248.286 138.897 247.808 141.439 247.808C143.571 247.808 145.43 248.163 147.015 248.874C148.628 249.557 149.871 250.541 150.746 251.826C151.648 253.083 152.099 254.573 152.099 256.295C152.099 257.853 151.771 259.315 151.115 260.682C150.459 262.049 149.188 263.607 147.302 265.356L140.701 271.588H153.042ZM168.003 277.492C165.625 277.492 163.506 276.904 161.648 275.729C159.789 274.554 158.327 272.859 157.261 270.645C156.222 268.404 155.703 265.739 155.703 262.65C155.703 259.561 156.222 256.91 157.261 254.696C158.327 252.455 159.789 250.746 161.648 249.571C163.506 248.396 165.625 247.808 168.003 247.808C170.381 247.808 172.499 248.396 174.358 249.571C176.216 250.746 177.665 252.455 178.704 254.696C179.77 256.91 180.303 259.561 180.303 262.65C180.303 265.739 179.77 268.404 178.704 270.645C177.665 272.859 176.216 274.554 174.358 275.729C172.499 276.904 170.381 277.492 168.003 277.492ZM168.003 271.875C169.752 271.875 171.119 271.123 172.103 269.62C173.114 268.117 173.62 265.793 173.62 262.65C173.62 259.507 173.114 257.183 172.103 255.68C171.119 254.177 169.752 253.425 168.003 253.425C166.281 253.425 164.914 254.177 163.903 255.68C162.919 257.183 162.427 259.507 162.427 262.65C162.427 265.793 162.919 268.117 163.903 269.62C164.914 271.123 166.281 271.875 168.003 271.875ZM195.83 277.492C193.452 277.492 191.333 276.904 189.475 275.729C187.616 274.554 186.154 272.859 185.088 270.645C184.049 268.404 183.53 265.739 183.53 262.65C183.53 259.561 184.049 256.91 185.088 254.696C186.154 252.455 187.616 250.746 189.475 249.571C191.333 248.396 193.452 247.808 195.83 247.808C198.208 247.808 200.326 248.396 202.185 249.571C204.043 250.746 205.492 252.455 206.531 254.696C207.597 256.91 208.13 259.561 208.13 262.65C208.13 265.739 207.597 268.404 206.531 270.645C205.492 272.859 204.043 274.554 202.185 275.729C200.326 276.904 198.208 277.492 195.83 277.492ZM195.83 271.875C197.579 271.875 198.946 271.123 199.93 269.62C200.941 268.117 201.447 265.793 201.447 262.65C201.447 259.507 200.941 257.183 199.93 255.68C198.946 254.177 197.579 253.425 195.83 253.425C194.108 253.425 192.741 254.177 191.73 255.68C190.746 257.183 190.254 259.507 190.254 262.65C190.254 265.793 190.746 268.117 191.73 269.62C192.741 271.123 194.108 271.875 195.83 271.875ZM231.976 265.151H224.842V272.121H219.553V265.151H212.46V260.149H219.553V253.179H224.842V260.149H231.976V265.151Z" fill="white"/>
</g>
<g filter="url(#filter4_d_201_468)">
<path d="M144.669 407.3V436H138.027V412.63H132.287V407.3H144.669ZM161.955 436.492C159.577 436.492 157.458 435.904 155.6 434.729C153.741 433.554 152.279 431.859 151.213 429.645C150.174 427.404 149.655 424.739 149.655 421.65C149.655 418.561 150.174 415.91 151.213 413.696C152.279 411.455 153.741 409.746 155.6 408.571C157.458 407.396 159.577 406.808 161.955 406.808C164.333 406.808 166.451 407.396 168.31 408.571C170.168 409.746 171.617 411.455 172.656 413.696C173.722 415.91 174.255 418.561 174.255 421.65C174.255 424.739 173.722 427.404 172.656 429.645C171.617 431.859 170.168 433.554 168.31 434.729C166.451 435.904 164.333 436.492 161.955 436.492ZM161.955 430.875C163.704 430.875 165.071 430.123 166.055 428.62C167.066 427.117 167.572 424.793 167.572 421.65C167.572 418.507 167.066 416.183 166.055 414.68C165.071 413.177 163.704 412.425 161.955 412.425C160.233 412.425 158.866 413.177 157.855 414.68C156.871 416.183 156.379 418.507 156.379 421.65C156.379 424.793 156.871 427.117 157.855 428.62C158.866 430.123 160.233 430.875 161.955 430.875ZM180.774 428.374C181.922 428.374 182.865 428.743 183.603 429.481C184.341 430.192 184.71 431.135 184.71 432.31C184.71 432.857 184.642 433.403 184.505 433.95C184.369 434.497 184.068 435.317 183.603 436.41L181.266 442.314H177.207L179.011 435.795C178.328 435.522 177.781 435.084 177.371 434.483C176.989 433.854 176.797 433.13 176.797 432.31C176.797 431.135 177.166 430.192 177.904 429.481C178.67 428.743 179.626 428.374 180.774 428.374ZM199.471 436.492C197.093 436.492 194.975 435.904 193.116 434.729C191.258 433.554 189.795 431.859 188.729 429.645C187.691 427.404 187.171 424.739 187.171 421.65C187.171 418.561 187.691 415.91 188.729 413.696C189.795 411.455 191.258 409.746 193.116 408.571C194.975 407.396 197.093 406.808 199.471 406.808C201.849 406.808 203.968 407.396 205.826 408.571C207.685 409.746 209.134 411.455 210.172 413.696C211.238 415.91 211.771 418.561 211.771 421.65C211.771 424.739 211.238 427.404 210.172 429.645C209.134 431.859 207.685 433.554 205.826 434.729C203.968 435.904 201.849 436.492 199.471 436.492ZM199.471 430.875C201.221 430.875 202.587 430.123 203.571 428.62C204.583 427.117 205.088 424.793 205.088 421.65C205.088 418.507 204.583 416.183 203.571 414.68C202.587 413.177 201.221 412.425 199.471 412.425C197.749 412.425 196.383 413.177 195.371 414.68C194.387 416.183 193.895 418.507 193.895 421.65C193.895 424.793 194.387 427.117 195.371 428.62C196.383 430.123 197.749 430.875 199.471 430.875ZM227.298 436.492C224.92 436.492 222.802 435.904 220.943 434.729C219.085 433.554 217.622 431.859 216.556 429.645C215.518 427.404 214.998 424.739 214.998 421.65C214.998 418.561 215.518 415.91 216.556 413.696C217.622 411.455 219.085 409.746 220.943 408.571C222.802 407.396 224.92 406.808 227.298 406.808C229.676 406.808 231.795 407.396 233.653 408.571C235.512 409.746 236.961 411.455 237.999 413.696C239.065 415.91 239.598 418.561 239.598 421.65C239.598 424.739 239.065 427.404 237.999 429.645C236.961 431.859 235.512 433.554 233.653 434.729C231.795 435.904 229.676 436.492 227.298 436.492ZM227.298 430.875C229.048 430.875 230.414 430.123 231.398 428.62C232.41 427.117 232.915 424.793 232.915 421.65C232.915 418.507 232.41 416.183 231.398 414.68C230.414 413.177 229.048 412.425 227.298 412.425C225.576 412.425 224.21 413.177 223.198 414.68C222.214 416.183 221.722 418.507 221.722 421.65C221.722 424.793 222.214 427.117 223.198 428.62C224.21 430.123 225.576 430.875 227.298 430.875ZM255.126 436.492C252.748 436.492 250.629 435.904 248.771 434.729C246.912 433.554 245.45 431.859 244.384 429.645C243.345 427.404 242.826 424.739 242.826 421.65C242.826 418.561 243.345 415.91 244.384 413.696C245.45 411.455 246.912 409.746 248.771 408.571C250.629 407.396 252.748 406.808 255.126 406.808C257.504 406.808 259.622 407.396 261.481 408.571C263.339 409.746 264.788 411.455 265.827 413.696C266.893 415.91 267.426 418.561 267.426 421.65C267.426 424.739 266.893 427.404 265.827 429.645C264.788 431.859 263.339 433.554 261.481 434.729C259.622 435.904 257.504 436.492 255.126 436.492ZM255.126 430.875C256.875 430.875 258.242 430.123 259.226 428.62C260.237 427.117 260.743 424.793 260.743 421.65C260.743 418.507 260.237 416.183 259.226 414.68C258.242 413.177 256.875 412.425 255.126 412.425C253.404 412.425 252.037 413.177 251.026 414.68C250.042 416.183 249.55 418.507 249.55 421.65C249.55 424.793 250.042 427.117 251.026 428.62C252.037 430.123 253.404 430.875 255.126 430.875ZM291.272 424.151H284.138V431.121H278.849V424.151H271.756V419.149H278.849V412.179H284.138V419.149H291.272V424.151Z" fill="white"/>
</g>
<defs>
<filter id="filter0_d_201_468" x="31.1709" y="40.1406" width="381.829" height="516.859" filterUnits="userSpaceOnUse" color-interpolation-filters="sRGB">
<feFlood flood-opacity="0" result="BackgroundImageFix"/>
<feColorMatrix in="SourceAlpha" type="matrix" values="0 0 0 0 0 0 0 0 0 0 0 0 0 0 0 0 0 0 127 0" result="hardAlpha"/>
<feOffset dy="4"/>
<feGaussianBlur stdDeviation="2"/>
<feComposite in2="hardAlpha" operator="out"/>
<feColorMatrix type="matrix" values="0 0 0 0 0.00392157 0 0 0 0 0.121569 0 0 0 0 0.309804 0 0 0 1 0"/>
<feBlend mode="normal" in2="BackgroundImageFix" result="effect1_dropShadow_201_468"/>
<feBlend mode="normal" in="SourceGraphic" in2="effect1_dropShadow_201_468" result="shape"/>
</filter>
<filter id="filter1_d_201_468" x="0" y="0" width="156.864" height="158.984" filterUnits="userSpaceOnUse" color-interpolation-filters="sRGB">
<feFlood flood-opacity="0" result="BackgroundImageFix"/>
<feColorMatrix in="SourceAlpha" type="matrix" values="0 0 0 0 0 0 0 0 0 0 0 0 0 0 0 0 0 0 127 0" result="hardAlpha"/>
<feMorphology radius="24" operator="dilate" in="SourceAlpha" result="effect1_dropShadow_201_468"/>
<feOffset dy="4"/>
<feGaussianBlur stdDeviation="20"/>
<feComposite in2="hardAlpha" operator="out"/>
<feColorMatrix type="matrix" values="0 0 0 0 0.0313726 0 0 0 0 0.627451 0 0 0 0 0.960784 0 0 0 0.32 0"/>
<feBlend mode="normal" in2="BackgroundImageFix" result="effect1_dropShadow_201_468"/>
<feBlend mode="normal" in="SourceGraphic" in2="effect1_dropShadow_201_468" result="shape"/>
</filter>
<filter id="filter2_d_201_468" x="94.287" y="67.8076" width="167.641" height="103.685" filterUnits="userSpaceOnUse" color-interpolation-filters="sRGB">
<feFlood flood-opacity="0" result="BackgroundImageFix"/>
<feColorMatrix in="SourceAlpha" type="matrix" values="0 0 0 0 0 0 0 0 0 0 0 0 0 0 0 0 0 0 127 0" result="hardAlpha"/>
<feOffset dy="4"/>
<feGaussianBlur stdDeviation="18.5"/>
<feComposite in2="hardAlpha" operator="out"/>
<feColorMatrix type="matrix" values="0 0 0 0 1 0 0 0 0 1 0 0 0 0 1 0 0 0 0.25 0"/>
<feBlend mode="normal" in2="BackgroundImageFix" result="effect1_dropShadow_201_468"/>
<feBlend mode="normal" in="SourceGraphic" in2="effect1_dropShadow_201_468" result="shape"/>
</filter>
<filter id="filter3_d_201_468" x="93.041" y="214.808" width="175.935" height="103.685" filterUnits="userSpaceOnUse" color-interpolation-filters="sRGB">
<feFlood flood-opacity="0" result="BackgroundImageFix"/>
<feColorMatrix in="SourceAlpha" type="matrix" values="0 0 0 0 0 0 0 0 0 0 0 0 0 0 0 0 0 0 127 0" result="hardAlpha"/>
<feOffset dy="4"/>
<feGaussianBlur stdDeviation="18.5"/>
<feComposite in2="hardAlpha" operator="out"/>
<feColorMatrix type="matrix" values="0 0 0 0 1 0 0 0 0 1 0 0 0 0 1 0 0 0 0.25 0"/>
<feBlend mode="normal" in2="BackgroundImageFix" result="effect1_dropShadow_201_468"/>
<feBlend mode="normal" in="SourceGraphic" in2="effect1_dropShadow_201_468" result="shape"/>
</filter>
<filter id="filter4_d_201_468" x="95.287" y="373.808" width="232.985" height="109.507" filterUnits="userSpaceOnUse" color-interpolation-filters="sRGB">
<feFlood flood-opacity="0" result="BackgroundImageFix"/>
<feColorMatrix in="SourceAlpha" type="matrix" values="0 0 0 0 0 0 0 0 0 0 0 0 0 0 0 0 0 0 127 0" result="hardAlpha"/>
<feOffset dy="4"/>
<feGaussianBlur stdDeviation="18.5"/>
<feComposite in2="hardAlpha" operator="out"/>
<feColorMatrix type="matrix" values="0 0 0 0 1 0 0 0 0 1 0 0 0 0 1 0 0 0 0.25 0"/>
<feBlend mode="normal" in2="BackgroundImageFix" result="effect1_dropShadow_201_468"/>
<feBlend mode="normal" in="SourceGraphic" in2="effect1_dropShadow_201_468" result="shape"/>
</filter>
</defs>
</svg>
